<?xml version="1.0" encoding="utf-8"?>
<!-- Generator: Adobe Illustrator 16.0.0, SVG Export Plug-In . SVG Version: 6.00 Build 0)  -->
<!DOCTYPE svg PUBLIC "-//W3C//DTD SVG 1.1//EN" "http://www.w3.org/Graphics/SVG/1.1/DTD/svg11.dtd">
<svg version="1.1" id="Layer_1" xmlns="http://www.w3.org/2000/svg" xmlns:xlink="http://www.w3.org/1999/xlink" x="0px" y="0px"
	 width="128px" height="128px" viewBox="0 0 128 128" enable-background="new 0 0 128 128" xml:space="preserve">
<circle class="logo-bg"cx="64" cy="64" r="64"/>
<path class="logo-mark" fill="#FFFFFF" d="M64,8.889c14.722,0,28.556,5.733,38.958,16.139c10.417,10.413,16.153,24.25,16.153,38.972
	c0,14.723-5.736,28.556-16.153,38.973C92.556,113.375,78.722,119.111,64,119.111s-28.569-5.736-38.972-16.139
	C14.611,92.556,8.889,78.723,8.889,64c0-14.722,5.723-28.559,16.14-38.972C35.431,14.622,49.278,8.889,64,8.889 M64,5.333
	C31.597,5.333,5.333,31.597,5.333,64c0,32.402,26.263,58.667,58.667,58.667c32.389,0,58.667-26.265,58.667-58.667
	C122.667,31.597,96.389,5.333,64,5.333L64,5.333z M83.876,49.299c2.903-3.875,4.028-8.736,4.028-12.688
	c0-6.306-1.709-10.879-5.084-13.583c-3.333-2.67-8.041-3.351-14.014-2.028l-16.944,3.757v8.719l-9.515,2.108v65.555l31.653-7.014
	v-8.868c4.722-1.569,8.409-4.288,10.986-8.125c2.639-3.958,3.985-8.923,3.985-14.771C88.973,56.333,87.265,51.958,83.876,49.299z
	 M70.501,82.542l-15.083,3.34V27.611l14.152-3.139c10.236-2.267,14.777,2.215,14.777,12.139c0,5.007-2,10.694-6.625,13.652
	c4.848,1.188,7.695,4.591,7.695,12.098C85.418,71.965,81.348,80.132,70.501,82.542z M68.57,32.927l-3.611,0.802v15.652l3.459-0.764
	c3.625-0.806,6.389-4,6.389-8.84C74.807,34.372,72.807,31.986,68.57,32.927z M68.515,44.861v-8.278l0.833-0.188
	c0.792-0.174,1.195-0.104,1.265-0.066c0,0,0.639,0.649,0.639,3.441C71.251,42.25,70.237,44.09,68.515,44.861z M68.043,56.938
	l-3.084,0.681v17.917l4-0.889c5.084-1.125,6.917-4.598,6.917-10.494C75.876,58.181,73.723,55.674,68.043,56.938z M68.515,71.098
	V60.472l0.292-0.062c1.764-0.396,2.569-0.215,2.777-0.055c0.028,0.027,0.736,0.632,0.736,3.798
	C72.32,69.527,70.626,70.576,68.515,71.098z"/>
</svg>
