<svg style="display: none;"><symbol viewBox="0 0 128 128" id="shape-logo-2"><title>logo-2</title> <circle class="logo-bg" cx="64" cy="64" r="64"/> <path class="logo-mark" fill="#FFFFFF" d="M64,8.889c14.722,0,28.556,5.733,38.958,16.139c10.417,10.413,16.153,24.25,16.153,38.972
	c0,14.723-5.736,28.556-16.153,38.973C92.556,113.375,78.722,119.111,64,119.111s-28.569-5.736-38.972-16.139
	C14.611,92.556,8.889,78.723,8.889,64c0-14.722,5.723-28.559,16.14-38.972C35.431,14.622,49.278,8.889,64,8.889 M64,5.333
	C31.597,5.333,5.333,31.597,5.333,64c0,32.402,26.263,58.667,58.667,58.667c32.389,0,58.667-26.265,58.667-58.667
	C122.667,31.597,96.389,5.333,64,5.333L64,5.333z M83.876,49.299c2.903-3.875,4.028-8.736,4.028-12.688
	c0-6.306-1.709-10.879-5.084-13.583c-3.333-2.67-8.041-3.351-14.014-2.028l-16.944,3.757v8.719l-9.515,2.108v65.555l31.653-7.014
	v-8.868c4.722-1.569,8.409-4.288,10.986-8.125c2.639-3.958,3.985-8.923,3.985-14.771C88.973,56.333,87.265,51.958,83.876,49.299z
	 M70.501,82.542l-15.083,3.34V27.611l14.152-3.139c10.236-2.267,14.777,2.215,14.777,12.139c0,5.007-2,10.694-6.625,13.652
	c4.848,1.188,7.695,4.591,7.695,12.098C85.418,71.965,81.348,80.132,70.501,82.542z M68.57,32.927l-3.611,0.802v15.652l3.459-0.764
	c3.625-0.806,6.389-4,6.389-8.84C74.807,34.372,72.807,31.986,68.57,32.927z M68.515,44.861v-8.278l0.833-0.188
	c0.792-0.174,1.195-0.104,1.265-0.066c0,0,0.639,0.649,0.639,3.441C71.251,42.25,70.237,44.09,68.515,44.861z M68.043,56.938
	l-3.084,0.681v17.917l4-0.889c5.084-1.125,6.917-4.598,6.917-10.494C75.876,58.181,73.723,55.674,68.043,56.938z M68.515,71.098
	V60.472l0.292-0.062c1.764-0.396,2.569-0.215,2.777-0.055c0.028,0.027,0.736,0.632,0.736,3.798
	C72.32,69.527,70.626,70.576,68.515,71.098z"/> </symbol><symbol viewBox="0 0 128 128" id="shape-logo"><title>logo</title> <g> <path d="M77.723,50.264c4.625-2.958,6.625-8.646,6.625-13.652c0-9.924-4.541-14.406-14.777-12.139l-14.152,3.139v58.271
		l15.083-3.34c10.847-2.41,14.917-10.577,14.917-20.181C85.418,54.854,82.57,51.451,77.723,50.264z M64.959,33.729l3.611-0.802
		c4.236-0.941,6.236,1.444,6.236,6.851c0,4.84-2.764,8.035-6.389,8.84l-3.459,0.764V33.729z M68.959,74.646l-4,0.889V57.618
		l3.084-0.681c5.68-1.264,7.833,1.243,7.833,7.215C75.876,70.049,74.043,73.521,68.959,74.646z"/> <path d="M71.584,60.354c-0.208-0.16-1.014-0.341-2.777,0.055l-0.292,0.062v10.625c2.111-0.521,3.806-1.57,3.806-6.945
		C72.32,60.986,71.612,60.382,71.584,60.354z"/> <path d="M64,0C28.653,0,0,28.653,0,64c0,35.348,28.653,64,64,64s64-28.652,64-64C128,28.653,99.347,0,64,0z M64,122.667
		C31.597,122.667,5.333,96.402,5.333,64C5.333,31.597,31.597,5.333,64,5.333c32.389,0,58.667,26.264,58.667,58.667
		C122.667,96.402,96.389,122.667,64,122.667z"/> <path d="M102.958,25.028C92.556,14.622,78.722,8.889,64,8.889s-28.569,5.733-38.972,16.139C14.611,35.441,8.889,49.278,8.889,64
		c0,14.723,5.723,28.556,16.14,38.973c10.402,10.402,24.25,16.139,38.972,16.139s28.556-5.736,38.958-16.139
		c10.417-10.417,16.153-24.25,16.153-38.973C119.111,49.278,113.375,35.441,102.958,25.028z M84.987,77.132
		c-2.577,3.837-6.265,6.556-10.986,8.125v8.868l-31.653,7.014V35.583l9.515-2.108v-8.719L68.807,21
		c5.973-1.323,10.681-0.643,14.014,2.028c3.375,2.705,5.084,7.278,5.084,13.583c0,3.951-1.125,8.812-4.028,12.688
		c3.389,2.66,5.097,7.035,5.097,13.062C88.973,68.209,87.626,73.174,84.987,77.132z"/> <path d="M71.251,39.771c0-2.792-0.639-3.441-0.639-3.441c-0.069-0.038-0.473-0.108-1.265,0.066l-0.833,0.188v8.278
		C70.237,44.09,71.251,42.25,71.251,39.771z"/> </g> </symbol></svg>