<?xml version="1.0" encoding="utf-8"?>
<!-- Generator: Adobe Illustrator 16.0.0, SVG Export Plug-In . SVG Version: 6.00 Build 0)  -->
<!DOCTYPE svg PUBLIC "-//W3C//DTD SVG 1.1//EN" "http://www.w3.org/Graphics/SVG/1.1/DTD/svg11.dtd">
<svg version="1.1" id="Layer_1_copy" xmlns="http://www.w3.org/2000/svg" xmlns:xlink="http://www.w3.org/1999/xlink" x="0px"
	 y="0px" width="128px" height="128px" viewBox="0 0 128 128" enable-background="new 0 0 128 128" xml:space="preserve">
<g>
	<path d="M77.723,50.264c4.625-2.958,6.625-8.646,6.625-13.652c0-9.924-4.541-14.406-14.777-12.139l-14.152,3.139v58.271
		l15.083-3.34c10.847-2.41,14.917-10.577,14.917-20.181C85.418,54.854,82.57,51.451,77.723,50.264z M64.959,33.729l3.611-0.802
		c4.236-0.941,6.236,1.444,6.236,6.851c0,4.84-2.764,8.035-6.389,8.84l-3.459,0.764V33.729z M68.959,74.646l-4,0.889V57.618
		l3.084-0.681c5.68-1.264,7.833,1.243,7.833,7.215C75.876,70.049,74.043,73.521,68.959,74.646z"/>
	<path d="M71.584,60.354c-0.208-0.16-1.014-0.341-2.777,0.055l-0.292,0.062v10.625c2.111-0.521,3.806-1.57,3.806-6.945
		C72.32,60.986,71.612,60.382,71.584,60.354z"/>
	<path d="M64,0C28.653,0,0,28.653,0,64c0,35.348,28.653,64,64,64s64-28.652,64-64C128,28.653,99.347,0,64,0z M64,122.667
		C31.597,122.667,5.333,96.402,5.333,64C5.333,31.597,31.597,5.333,64,5.333c32.389,0,58.667,26.264,58.667,58.667
		C122.667,96.402,96.389,122.667,64,122.667z"/>
	<path d="M102.958,25.028C92.556,14.622,78.722,8.889,64,8.889s-28.569,5.733-38.972,16.139C14.611,35.441,8.889,49.278,8.889,64
		c0,14.723,5.723,28.556,16.14,38.973c10.402,10.402,24.25,16.139,38.972,16.139s28.556-5.736,38.958-16.139
		c10.417-10.417,16.153-24.25,16.153-38.973C119.111,49.278,113.375,35.441,102.958,25.028z M84.987,77.132
		c-2.577,3.837-6.265,6.556-10.986,8.125v8.868l-31.653,7.014V35.583l9.515-2.108v-8.719L68.807,21
		c5.973-1.323,10.681-0.643,14.014,2.028c3.375,2.705,5.084,7.278,5.084,13.583c0,3.951-1.125,8.812-4.028,12.688
		c3.389,2.66,5.097,7.035,5.097,13.062C88.973,68.209,87.626,73.174,84.987,77.132z"/>
	<path d="M71.251,39.771c0-2.792-0.639-3.441-0.639-3.441c-0.069-0.038-0.473-0.108-1.265,0.066l-0.833,0.188v8.278
		C70.237,44.09,71.251,42.25,71.251,39.771z"/>
</g>
</svg>
