<?xml version="1.0" encoding="utf-8"?>
<!-- Generator: Adobe Illustrator 16.0.0, SVG Export Plug-In . SVG Version: 6.00 Build 0)  -->
<!DOCTYPE svg PUBLIC "-//W3C//DTD SVG 1.1//EN" "http://www.w3.org/Graphics/SVG/1.1/DTD/svg11.dtd">
<svg version="1.1" id="Layer_1" xmlns="http://www.w3.org/2000/svg" xmlns:xlink="http://www.w3.org/1999/xlink" x="0px" y="0px"
	 width="112px" height="56px" viewBox="0 0 112 56" enable-background="new 0 0 112 56" xml:space="preserve">
<polygon fill="#4D4D4D" points="103.248,37.002 112,28.25 103.246,19.498 "/>
<path fill="#FECB08" d="M83.236,29c3.731,3.299,6.1,8.117,6.098,13.5c0,5.384-2.366,10.2-6.096,13.5l-47.734-0.001V29H83.236z"/>
<path fill="#FECB08" d="M83.242,0c3.73,3.299,6.096,8.115,6.096,13.501c0.002,5.382-2.365,10.2-6.096,13.499H35.504V0H83.242z"/>
<path fill="#F87063" d="M14.168,0L14.168,0H4.5C2.3,0,0,2.05,0,4.25v47.999C0,54.449,2.3,56,4.5,56h20c0.001,0,0.002,0,0.003,0H28V0
	H14.168z"/>
</svg>
